Coordinates
version=1
nRows=24
nColumns=22
inDegrees=yes

Units are S.I. units (second, meters, Newtons, ...)
If the header above contains a line with 'inDegrees', this indicates whether rotational values are in degrees (yes) or radians (no).

endheader
time	pelvis_tilt	pelvis_list	pelvis_rotation	pelvis_tx	pelvis_ty	pelvis_tz	hip_flexion_r	hip_adduction_r	hip_rotation_r	knee_angle_r	ankle_angle_r	subtalar_angle_r	hip_flexion_l	hip_adduction_l	hip_rotation_l	knee_angle_l	ankle_angle_l	subtalar_angle_l	lumbar_extension	lumbar_bending	lumbar_rotation
      5.73000000	     -2.96738138	      6.47546043	   -500.56779755	      0.68380428	      0.96027261	      0.81809548	      8.34327853	     15.22948041	     -2.89201456	    -20.93744571	     11.54994453	     -7.40871410	     23.92421633	    -11.33914878	     12.88750396	    -41.88414710	     12.00729073	      0.06624963	     -0.89519128	      8.61454005	     -4.87456835
      5.74000000	     -2.86252442	      6.46364752	   -501.48723757	      0.67810817	      0.96014495	      0.82199647	      7.70482260	     15.22888177	     -2.01151542	    -20.79472787	     11.79392760	     -7.35340330	     24.34693473	    -11.10531889	     13.43149434	    -40.29426122	     11.91355790	      0.44475055	     -0.91120286	      8.49479220	     -4.54728197
      5.75000000	     -2.75796445	      6.44840196	   -502.38305281	      0.67244640	      0.95996428	      0.82592208	      7.07732702	     15.20489647	     -1.15457796	    -20.66508682	     12.05015797	     -7.31720472	     24.74607480	    -10.87812544	     13.94706308	    -38.69570244	     11.78509733	      0.77200935	     -0.92219645	      8.37726814	     -4.23821585
      5.76000000	     -2.67031479	      6.43237351	   -503.24535245	      0.66680415	      0.95975150	      0.82986440	      6.44385689	     15.17173309	     -0.32805353	    -20.53649032	     12.30868847	     -7.26954231	     25.11689597	    -10.67319660	     14.42951032	    -37.09440671	     11.57918945	      1.09717253	     -0.94115088	      8.27130648	     -3.95470717
      5.77000000	     -2.59286139	      6.42030777	   -504.07721912	      0.66118352	      0.95949254	      0.83383663	      5.81439603	     15.12845252	      0.46822593	    -20.41346501	     12.57096544	     -7.21739186	     25.46669158	    -10.49364217	     14.85706820	    -35.48938820	     11.30988980	      1.38057872	     -0.96045998	      8.18018420	     -3.68967845
      5.78000000	     -2.51572090	      6.41960575	   -504.88827219	      0.65558429	      0.95917182	      0.83780673	      5.21157367	     15.07840749	      1.23485743	    -20.31071209	     12.82542498	     -7.17454100	     25.80942130	    -10.34578929	     15.20705445	    -33.88387867	     10.96322384	      1.59987337	     -0.96996383	      8.10080589	     -3.42709130
      5.79000000	     -2.45905577	      6.41619201	   -505.66747303	      0.64998136	      0.95882616	      0.84182245	      4.59004086	     15.02172055	      1.97763044	    -20.20114041	     13.08690136	     -7.11403371	     26.11162465	    -10.22512006	     15.47868064	    -32.26863907	     10.58822181	      1.79303532	     -0.99362042	      8.03585598	     -3.18753100
      5.80000000	     -2.41109180	      6.41928801	   -506.42306007	      0.64437568	      0.95843346	      0.84586337	      3.97337786	     14.95965715	      2.69085048	    -20.09699454	     13.34911007	     -7.04109525	     26.39021299	    -10.13432042	     15.66042093	    -30.64869665	     10.18449613	      1.95014625	     -1.01712560	      7.98430530	     -2.96157091
      5.81000000	     -2.37044723	      6.42589032	   -507.15699368	      0.63876448	      0.95799740	      0.84993664	      3.35816031	     14.88967442	      3.37890596	    -19.99578798	     13.61432378	     -6.95355934	     26.63921564	    -10.06731204	     15.75298853	    -29.01915842	      9.76904186	      2.07596870	     -1.04183703	      7.94301899	     -2.73983666
      5.82000000	     -2.34519989	      6.43455529	   -507.86419658	      0.63314853	      0.95753181	      0.85404842	      2.73721965	     14.81454271	      4.03392045	    -19.89762945	     13.87492991	     -6.82657761	     26.84796012	    -10.02059971	     15.77608980	    -27.37912674	      9.35445429	      2.17708367	     -1.07696204	      7.91537417	     -2.54789566
      5.83000000	     -2.30016693	      6.45774134	   -508.56804625	      0.62753165	      0.95698557	      0.85816945	      2.16127949	     14.72907153	      4.66598678	    -19.82744109	     14.13245392	     -6.73422083	     27.04886566	     -9.99010637	     15.72627555	    -25.73075233	      8.96855207	      2.27316663	     -1.08537040	      7.89282193	     -2.34124312
      5.84000000	     -2.24595521	      6.48969121	   -509.26337033	      0.62190778	      0.95637657	      0.86231647	      1.61322445	     14.63290862	      5.26849968	    -19.77804995	     14.38166194	     -6.65101882	     27.22629759	     -9.97179155	     15.63207770	    -24.07556131	      8.62755865	      2.37886993	     -1.07960704	      7.87680772	     -2.13811303
      5.85000000	     -2.17893019	      6.53248487	   -509.94952197	      0.61628707	      0.95569986	      0.86647229	      1.10664353	     14.53105625	      5.85320303	    -19.76381881	     14.61439731	     -6.57979646	     27.38287512	     -9.96303519	     15.52118084	    -22.41581478	      8.33486129	      2.49827683	     -1.05715446	      7.86769987	     -1.96949757
      5.86000000	     -2.13500306	      6.57038259	   -510.61273813	      0.61061547	      0.95501179	      0.87069171	      0.56741196	     14.42162502	      6.39656846	    -19.73133923	     14.86733543	     -6.45883646	     27.46129866	     -9.96091347	     15.46048022	    -20.74245452	      8.13653282	      2.64574023	     -1.05270711	      7.86746987	     -1.78996789
      5.87000000	     -2.08081534	      6.62478019	   -511.26609879	      0.60493704	      0.95425574	      0.87491438	      0.07000481	     14.31392449	      6.92511961	    -19.73448191	     15.10271312	     -6.31498346	     27.51955538	     -9.97234607	     15.45015462	    -19.08592588	      7.98531134	      2.82091870	     -1.03162374	      7.87937411	     -1.65378169
      5.88000000	     -2.00835614	      6.70091887	   -511.92160174	      0.59922173	      0.95341559	      0.87913526	     -0.37984432	     14.21018098	      7.43970639	    -19.77074244	     15.33395849	     -6.21102502	     27.56322881	    -10.00419609	     15.51073844	    -17.46066515	      7.90546890	      2.98432388	     -0.98042039	      7.90340501	     -1.50417178
      5.89000000	     -1.94600452	      6.79421539	   -512.56552238	      0.59345598	      0.95253718	      0.88335571	     -0.82021262	     14.12177258	      7.94748144	    -19.82304985	     15.54872714	     -6.08342506	     27.57021472	    -10.06492809	     15.66732431	    -15.88747654	      7.86485363	      3.14953019	     -0.92967176	      7.94750857	     -1.38085271
      5.90000000	     -1.89784560	      6.90611169	   -513.18910566	      0.58763619	      0.95162618	      0.88758886	     -1.25250283	     14.05098087	      8.43810409	    -19.89433698	     15.75917646	     -5.87755719	     27.54751012	    -10.15408237	     15.93113961	    -14.39801193	      7.84864394	      3.31644624	     -0.88157751	      8.01478140	     -1.28912134
      5.91000000	     -1.84508444	      7.05746133	   -513.82704818	      0.58174029	      0.95065073	      0.89177569	     -1.64900027	     14.01527489	      8.96021659	    -19.99466873	     15.93436312	     -5.74965342	     27.53784145	    -10.29610592	     16.24642621	    -13.04654150	      7.86959359	      3.41169556	     -0.81192907	      8.11496534	     -1.17964602
      5.92000000	     -1.80850018	      7.22869845	   -514.44959010	      0.57577533	      0.94966179	      0.89596493	     -2.03846804	     14.00302556	      9.48156829	    -20.12005120	     16.08845133	     -5.58551957	     27.52095567	    -10.46709064	     16.62430901	    -11.85851019	      7.88369370	      3.47313363	     -0.74856656	      8.23902564	     -1.10043583
      5.93000000	     -1.79471723	      7.40388052	   -515.06775860	      0.56970640	      0.94868828	      0.90017090	     -2.44466361	     13.99581798	      9.99106493	    -20.25968721	     16.27149764	     -5.30993080	     27.48406888	    -10.65639131	     17.01034464	    -10.86440218	      7.90298705	      3.47166086	     -0.70517464	      8.37305994	     -1.01219106
      5.94000000	     -1.75514105	      7.63188399	   -515.68048378	      0.56359469	      0.94765215	      0.90434031	     -2.77589017	     14.03517446	     10.52248377	    -20.44605966	     16.36324280	     -5.18675183	     27.52949355	    -10.87444155	     17.40358380	    -10.11846452	      7.88360407	      3.46826013	     -0.61442697	      8.54414590	     -0.96110502
      5.95000000	     -1.75692516	      7.82588822	   -516.30293816	      0.55734028	      0.94671556	      0.90856198	     -3.16998784	     14.04648522	     11.07146612	    -20.63855633	     16.48230947	     -4.78848525	     27.51024403	    -11.07840755	     17.74567724	     -9.59556792	      7.88688440	      3.33400149	     -0.57898720	      8.69694980	     -0.87970027
      5.96000000	     -1.73983982	      8.05022849	   -516.91904135	      0.55102822	      0.94576031	      0.91278060	     -3.50905336	     14.08349006	     11.61900203	    -20.87601189	     16.55717946	     -4.52273787	     27.55357729	    -11.28190231	     18.05687233	     -9.33704899	      7.83637008	      3.24611022	     -0.51262085	      8.86753985	     -0.82796988
